<mxfile host="app.diagrams.net" modified="2024-01-19T13:13:54.011Z" agent="Mozilla/5.0 (Windows NT 10.0; Win64; x64) AppleWebKit/537.36 (KHTML, like Gecko) Chrome/120.0.0.0 Safari/537.36 Edg/120.0.0.0" etag="lUWF8laaGNsK82jV-kRB" version="22.1.18" type="device">
  <diagram name="Page-1" id="tM3X3zaY6s-PzsEFY557">
    <mxGraphModel dx="568" dy="381" grid="1" gridSize="10" guides="1" tooltips="1" connect="1" arrows="1" fold="1" page="1" pageScale="1" pageWidth="827" pageHeight="1169" math="0" shadow="0">
      <root>
        <mxCell id="0" />
        <mxCell id="1" parent="0" />
        <mxCell id="TkmgC-WGhOvL6GIXfgKp-9" value="" style="rounded=0;orthogonalLoop=1;jettySize=auto;html=1;endArrow=halfCircle;endFill=0;endSize=6;strokeWidth=1;sketch=0;exitX=0;exitY=0.5;exitDx=0;exitDy=0;" parent="1" target="TkmgC-WGhOvL6GIXfgKp-11" edge="1">
          <mxGeometry relative="1" as="geometry">
            <mxPoint x="400" y="90" as="sourcePoint" />
          </mxGeometry>
        </mxCell>
        <mxCell id="TkmgC-WGhOvL6GIXfgKp-10" value="" style="rounded=0;orthogonalLoop=1;jettySize=auto;html=1;endArrow=oval;endFill=0;sketch=0;sourcePerimeterSpacing=0;targetPerimeterSpacing=0;endSize=10;exitX=1;exitY=0.5;exitDx=0;exitDy=0;" parent="1" target="TkmgC-WGhOvL6GIXfgKp-11" edge="1">
          <mxGeometry relative="1" as="geometry">
            <mxPoint x="170" y="90" as="sourcePoint" />
          </mxGeometry>
        </mxCell>
        <mxCell id="TkmgC-WGhOvL6GIXfgKp-11" value="" style="ellipse;whiteSpace=wrap;html=1;align=center;aspect=fixed;fillColor=none;strokeColor=none;resizable=0;perimeter=centerPerimeter;rotatable=0;allowArrows=0;points=[];outlineConnect=1;" parent="1" vertex="1">
          <mxGeometry x="280" y="85" width="10" height="10" as="geometry" />
        </mxCell>
        <mxCell id="TkmgC-WGhOvL6GIXfgKp-12" value="" style="rounded=0;orthogonalLoop=1;jettySize=auto;html=1;endArrow=halfCircle;endFill=0;endSize=6;strokeWidth=1;sketch=0;exitX=0.5;exitY=0;exitDx=0;exitDy=0;" parent="1" target="TkmgC-WGhOvL6GIXfgKp-14" edge="1">
          <mxGeometry relative="1" as="geometry">
            <mxPoint x="440" y="190" as="sourcePoint" />
          </mxGeometry>
        </mxCell>
        <mxCell id="TkmgC-WGhOvL6GIXfgKp-13" value="" style="rounded=0;orthogonalLoop=1;jettySize=auto;html=1;endArrow=oval;endFill=0;sketch=0;sourcePerimeterSpacing=0;targetPerimeterSpacing=0;endSize=10;" parent="1" target="TkmgC-WGhOvL6GIXfgKp-14" edge="1">
          <mxGeometry relative="1" as="geometry">
            <mxPoint x="440" y="130" as="sourcePoint" />
            <Array as="points">
              <mxPoint x="440" y="120" />
              <mxPoint x="440" y="130" />
            </Array>
          </mxGeometry>
        </mxCell>
        <mxCell id="TkmgC-WGhOvL6GIXfgKp-14" value="" style="ellipse;whiteSpace=wrap;html=1;align=center;aspect=fixed;fillColor=none;strokeColor=none;resizable=0;perimeter=centerPerimeter;rotatable=0;allowArrows=0;points=[];outlineConnect=1;" parent="1" vertex="1">
          <mxGeometry x="435" y="160" width="10" height="10" as="geometry" />
        </mxCell>
        <mxCell id="TkmgC-WGhOvL6GIXfgKp-15" value="" style="rounded=0;orthogonalLoop=1;jettySize=auto;html=1;endArrow=halfCircle;endFill=0;endSize=6;strokeWidth=1;sketch=0;" parent="1" target="TkmgC-WGhOvL6GIXfgKp-17" edge="1">
          <mxGeometry relative="1" as="geometry">
            <mxPoint x="170" y="213.22580645161293" as="sourcePoint" />
          </mxGeometry>
        </mxCell>
        <mxCell id="TkmgC-WGhOvL6GIXfgKp-16" value="" style="rounded=0;orthogonalLoop=1;jettySize=auto;html=1;endArrow=oval;endFill=0;sketch=0;sourcePerimeterSpacing=0;targetPerimeterSpacing=0;endSize=10;exitX=0;exitY=0.75;exitDx=0;exitDy=0;" parent="1" target="TkmgC-WGhOvL6GIXfgKp-17" edge="1">
          <mxGeometry relative="1" as="geometry">
            <mxPoint x="400" y="110" as="sourcePoint" />
          </mxGeometry>
        </mxCell>
        <mxCell id="TkmgC-WGhOvL6GIXfgKp-17" value="" style="ellipse;whiteSpace=wrap;html=1;align=center;aspect=fixed;fillColor=none;strokeColor=none;resizable=0;perimeter=centerPerimeter;rotatable=0;allowArrows=0;points=[];outlineConnect=1;" parent="1" vertex="1">
          <mxGeometry x="280" y="160" width="10" height="10" as="geometry" />
        </mxCell>
        <mxCell id="TkmgC-WGhOvL6GIXfgKp-18" value="" style="rounded=0;orthogonalLoop=1;jettySize=auto;html=1;endArrow=halfCircle;endFill=0;endSize=6;strokeWidth=1;sketch=0;" parent="1" target="TkmgC-WGhOvL6GIXfgKp-20" edge="1">
          <mxGeometry relative="1" as="geometry">
            <mxPoint x="400" y="230" as="sourcePoint" />
            <Array as="points" />
          </mxGeometry>
        </mxCell>
        <mxCell id="TkmgC-WGhOvL6GIXfgKp-19" value="" style="rounded=0;orthogonalLoop=1;jettySize=auto;html=1;endArrow=oval;endFill=0;sketch=0;sourcePerimeterSpacing=0;targetPerimeterSpacing=0;endSize=10;" parent="1" target="TkmgC-WGhOvL6GIXfgKp-20" edge="1">
          <mxGeometry relative="1" as="geometry">
            <mxPoint x="170" y="230" as="sourcePoint" />
          </mxGeometry>
        </mxCell>
        <mxCell id="TkmgC-WGhOvL6GIXfgKp-20" value="" style="ellipse;whiteSpace=wrap;html=1;align=center;aspect=fixed;fillColor=none;strokeColor=none;resizable=0;perimeter=centerPerimeter;rotatable=0;allowArrows=0;points=[];outlineConnect=1;" parent="1" vertex="1">
          <mxGeometry x="290" y="225" width="10" height="10" as="geometry" />
        </mxCell>
        <mxCell id="TkmgC-WGhOvL6GIXfgKp-21" value="Livello di modellazione" style="shape=module;align=left;spacingLeft=20;align=center;verticalAlign=top;whiteSpace=wrap;html=1;" parent="1" vertex="1">
          <mxGeometry x="90" y="190" width="120" height="50" as="geometry" />
        </mxCell>
        <mxCell id="TkmgC-WGhOvL6GIXfgKp-22" value="Graphic User Interface" style="shape=module;align=left;spacingLeft=20;align=center;verticalAlign=top;whiteSpace=wrap;html=1;" parent="1" vertex="1">
          <mxGeometry x="390" y="185" width="110" height="75" as="geometry" />
        </mxCell>
        <mxCell id="TkmgC-WGhOvL6GIXfgKp-23" value="Livello Logico" style="shape=module;align=left;spacingLeft=20;align=center;verticalAlign=top;whiteSpace=wrap;html=1;" parent="1" vertex="1">
          <mxGeometry x="390" y="55" width="110" height="70" as="geometry" />
        </mxCell>
        <mxCell id="TkmgC-WGhOvL6GIXfgKp-24" value="&lt;blockquote style=&quot;margin: 0px 0px 0px 40px; border: none; padding: 0px;&quot;&gt;DataBase&lt;/blockquote&gt;&lt;blockquote style=&quot;margin: 0px 0px 0px 40px; border: none; padding: 0px;&quot;&gt;&lt;br&gt;&lt;/blockquote&gt;" style="shape=module;align=center;spacingLeft=20;align=center;verticalAlign=middle;whiteSpace=wrap;html=1;labelPosition=center;verticalLabelPosition=middle;" parent="1" vertex="1">
          <mxGeometry x="90" y="65" width="120" height="50" as="geometry" />
        </mxCell>
        <mxCell id="V9-EhzO5erUVGMG7Sstu-1" value="Database fornisce dati&lt;br&gt;" style="text;html=1;strokeColor=none;fillColor=none;align=center;verticalAlign=middle;whiteSpace=wrap;rounded=0;" parent="1" vertex="1">
          <mxGeometry x="230" y="50" width="60" height="30" as="geometry" />
        </mxCell>
        <mxCell id="V9-EhzO5erUVGMG7Sstu-2" value="Logico avvia&lt;br&gt;&amp;nbsp;la GUI e notifica le necessitÃ  di aggiornamento" style="text;html=1;strokeColor=none;fillColor=none;align=center;verticalAlign=middle;whiteSpace=wrap;rounded=0;" parent="1" vertex="1">
          <mxGeometry x="450" y="140" width="150" height="30" as="geometry" />
        </mxCell>
        <mxCell id="V9-EhzO5erUVGMG7Sstu-3" value="&amp;nbsp;Il logico reagisce a agli input e genera dati da utilizzare" style="text;html=1;strokeColor=none;fillColor=none;align=center;verticalAlign=middle;whiteSpace=wrap;rounded=0;" parent="1" vertex="1">
          <mxGeometry x="170" y="130" width="120" height="30" as="geometry" />
        </mxCell>
        <mxCell id="V9-EhzO5erUVGMG7Sstu-4" value="Il modello conserva temporaneamente I dati del logico, successivamente lette e utilizzate dalla GUI per compilare e aggiornare i dati utilizzati" style="text;html=1;strokeColor=none;fillColor=none;align=center;verticalAlign=middle;whiteSpace=wrap;rounded=0;" parent="1" vertex="1">
          <mxGeometry x="147.5" y="210" width="242.5" height="120" as="geometry" />
        </mxCell>
      </root>
    </mxGraphModel>
  </diagram>
</mxfile>
